<mxfile host="65bd71144e" modified="2020-11-20T22:43:59.452Z" agent="5.0 (Windows NT 10.0; Win64; x64) AppleWebKit/537.36 (KHTML, like Gecko) Code/1.51.1 Chrome/83.0.4103.122 Electron/9.3.3 Safari/537.36" etag="18uzUhsuO2T2-YuhxTfg" version="13.6.5" pages="3">
    <diagram id="dhNw0vgPH9vMowXlXi8j" name="verRamos">
        <mxGraphModel dx="656" dy="520" grid="1" gridSize="10" guides="1" tooltips="1" connect="1" arrows="1" fold="1" page="1" pageScale="1" pageWidth="827" pageHeight="1169" math="0" shadow="0">
            <root>
                <mxCell id="0"/>
                <mxCell id="1" parent="0"/>
                <mxCell id="PfXvn1CLp2rQ60WtogJF-1" style="edgeStyle=orthogonalEdgeStyle;rounded=0;orthogonalLoop=1;jettySize=auto;html=1;exitX=0;exitY=0.3333333333333333;exitDx=0;exitDy=0;exitPerimeter=0;entryX=1;entryY=0.5;entryDx=0;entryDy=0;" parent="1" source="PfXvn1CLp2rQ60WtogJF-4" target="PfXvn1CLp2rQ60WtogJF-9" edge="1">
                    <mxGeometry relative="1" as="geometry">
                        <mxPoint x="580" y="113.42857142857144" as="targetPoint"/>
                    </mxGeometry>
                </mxCell>
                <mxCell id="PfXvn1CLp2rQ60WtogJF-2" value="/ramos" style="edgeLabel;html=1;align=center;verticalAlign=middle;resizable=0;points=[];" parent="PfXvn1CLp2rQ60WtogJF-1" vertex="1" connectable="0">
                    <mxGeometry x="-0.1184" relative="1" as="geometry">
                        <mxPoint as="offset"/>
                    </mxGeometry>
                </mxCell>
                <mxCell id="PfXvn1CLp2rQ60WtogJF-3" value="0" style="edgeLabel;html=1;align=center;verticalAlign=middle;resizable=0;points=[];" parent="PfXvn1CLp2rQ60WtogJF-1" vertex="1" connectable="0">
                    <mxGeometry x="0.5899" relative="1" as="geometry">
                        <mxPoint as="offset"/>
                    </mxGeometry>
                </mxCell>
                <mxCell id="PfXvn1CLp2rQ60WtogJF-4" value="estudiante&lt;br&gt;#ID = 123" style="shape=umlActor;verticalLabelPosition=bottom;verticalAlign=top;html=1;outlineConnect=0;" parent="1" vertex="1">
                    <mxGeometry x="740" y="160" width="40" height="70" as="geometry"/>
                </mxCell>
                <mxCell id="PfXvn1CLp2rQ60WtogJF-5" value="{ &quot;student_id&quot;:123 }" style="text;html=1;strokeColor=none;fillColor=none;align=center;verticalAlign=middle;whiteSpace=wrap;rounded=0;" parent="1" vertex="1">
                    <mxGeometry x="250" y="60" width="130" height="20" as="geometry"/>
                </mxCell>
                <mxCell id="PfXvn1CLp2rQ60WtogJF-6" value="[ {&quot;nombre_ramo&quot;:&quot;calculo1&quot;,&quot;codigo&quot;:&quot;BAIN075&quot;,&quot;semestre&quot;:2}, ... ]" style="text;html=1;strokeColor=none;fillColor=none;align=center;verticalAlign=middle;whiteSpace=wrap;rounded=0;" parent="1" vertex="1">
                    <mxGeometry x="120" y="160" width="560" height="20" as="geometry"/>
                </mxCell>
                <mxCell id="PfXvn1CLp2rQ60WtogJF-7" style="edgeStyle=orthogonalEdgeStyle;rounded=0;orthogonalLoop=1;jettySize=auto;html=1;exitX=0;exitY=0.5;exitDx=0;exitDy=0;entryX=1;entryY=0.25;entryDx=0;entryDy=0;" parent="1" source="PfXvn1CLp2rQ60WtogJF-9" target="PfXvn1CLp2rQ60WtogJF-10" edge="1">
                    <mxGeometry relative="1" as="geometry"/>
                </mxCell>
                <mxCell id="PfXvn1CLp2rQ60WtogJF-8" value="1" style="edgeLabel;html=1;align=center;verticalAlign=middle;resizable=0;points=[];" parent="PfXvn1CLp2rQ60WtogJF-7" vertex="1" connectable="0">
                    <mxGeometry x="-0.6885" y="2" relative="1" as="geometry">
                        <mxPoint as="offset"/>
                    </mxGeometry>
                </mxCell>
                <mxCell id="PfXvn1CLp2rQ60WtogJF-9" value="Frontend" style="rounded=0;whiteSpace=wrap;html=1;" parent="1" vertex="1">
                    <mxGeometry x="590" y="107.5" width="80" height="30" as="geometry"/>
                </mxCell>
                <mxCell id="PfXvn1CLp2rQ60WtogJF-10" value="" style="rounded=1;whiteSpace=wrap;html=1;align=left;" parent="1" vertex="1">
                    <mxGeometry x="20" y="45" width="140" height="155" as="geometry"/>
                </mxCell>
                <mxCell id="PfXvn1CLp2rQ60WtogJF-11" style="edgeStyle=orthogonalEdgeStyle;rounded=0;orthogonalLoop=1;jettySize=auto;html=1;exitX=0.5;exitY=1;exitDx=0;exitDy=0;entryX=0.5;entryY=1;entryDx=0;entryDy=0;" parent="1" source="PfXvn1CLp2rQ60WtogJF-13" target="PfXvn1CLp2rQ60WtogJF-9" edge="1">
                    <mxGeometry relative="1" as="geometry"/>
                </mxCell>
                <mxCell id="PfXvn1CLp2rQ60WtogJF-12" value="2&lt;br&gt;" style="edgeLabel;html=1;align=center;verticalAlign=middle;resizable=0;points=[];" parent="PfXvn1CLp2rQ60WtogJF-11" vertex="1" connectable="0">
                    <mxGeometry x="0.846" y="2" relative="1" as="geometry">
                        <mxPoint x="1" y="1" as="offset"/>
                    </mxGeometry>
                </mxCell>
                <mxCell id="PfXvn1CLp2rQ60WtogJF-13" value="/api/verRamos" style="rounded=0;whiteSpace=wrap;html=1;" parent="1" vertex="1">
                    <mxGeometry x="46.88" y="90" width="86.25" height="30" as="geometry"/>
                </mxCell>
                <mxCell id="PfXvn1CLp2rQ60WtogJF-14" value="Backend" style="text;html=1;strokeColor=none;fillColor=none;align=center;verticalAlign=middle;whiteSpace=wrap;rounded=0;" parent="1" vertex="1">
                    <mxGeometry x="40" y="60" width="40" height="20" as="geometry"/>
                </mxCell>
                <mxCell id="PfXvn1CLp2rQ60WtogJF-15" value=".JSON" style="text;html=1;strokeColor=none;fillColor=none;align=center;verticalAlign=middle;whiteSpace=wrap;rounded=0;" parent="1" vertex="1">
                    <mxGeometry x="430" y="185" width="40" height="20" as="geometry"/>
                </mxCell>
            </root>
        </mxGraphModel>
    </diagram>
    <diagram name="register" id="wbxjvpBO11__POFifYMO">
        <mxGraphModel dx="656" dy="520" grid="1" gridSize="10" guides="1" tooltips="1" connect="1" arrows="1" fold="1" page="1" pageScale="1" pageWidth="827" pageHeight="1169" math="0" shadow="0">
            <root>
                <mxCell id="8wwHdv7dpoQ4_Vg7DCHK-0"/>
                <mxCell id="8wwHdv7dpoQ4_Vg7DCHK-1" parent="8wwHdv7dpoQ4_Vg7DCHK-0"/>
                <mxCell id="8wwHdv7dpoQ4_Vg7DCHK-11" value="" style="rounded=1;whiteSpace=wrap;html=1;align=left;" parent="8wwHdv7dpoQ4_Vg7DCHK-1" vertex="1">
                    <mxGeometry x="20" y="45" width="140" height="155" as="geometry"/>
                </mxCell>
                <mxCell id="8wwHdv7dpoQ4_Vg7DCHK-2" style="edgeStyle=orthogonalEdgeStyle;rounded=0;orthogonalLoop=1;jettySize=auto;html=1;exitX=0;exitY=0.3333333333333333;exitDx=0;exitDy=0;exitPerimeter=0;entryX=1;entryY=0.5;entryDx=0;entryDy=0;" parent="8wwHdv7dpoQ4_Vg7DCHK-1" source="8wwHdv7dpoQ4_Vg7DCHK-5" target="8wwHdv7dpoQ4_Vg7DCHK-10" edge="1">
                    <mxGeometry relative="1" as="geometry">
                        <mxPoint x="580" y="113.42857142857144" as="targetPoint"/>
                    </mxGeometry>
                </mxCell>
                <mxCell id="8wwHdv7dpoQ4_Vg7DCHK-3" value="/register" style="edgeLabel;html=1;align=center;verticalAlign=middle;resizable=0;points=[];" parent="8wwHdv7dpoQ4_Vg7DCHK-2" vertex="1" connectable="0">
                    <mxGeometry x="-0.1184" relative="1" as="geometry">
                        <mxPoint x="1" as="offset"/>
                    </mxGeometry>
                </mxCell>
                <mxCell id="8wwHdv7dpoQ4_Vg7DCHK-4" value="0" style="edgeLabel;html=1;align=center;verticalAlign=middle;resizable=0;points=[];" parent="8wwHdv7dpoQ4_Vg7DCHK-2" vertex="1" connectable="0">
                    <mxGeometry x="0.5899" relative="1" as="geometry">
                        <mxPoint as="offset"/>
                    </mxGeometry>
                </mxCell>
                <mxCell id="8wwHdv7dpoQ4_Vg7DCHK-5" value="estudiante&lt;br&gt;#ID = 123" style="shape=umlActor;verticalLabelPosition=bottom;verticalAlign=top;html=1;outlineConnect=0;" parent="8wwHdv7dpoQ4_Vg7DCHK-1" vertex="1">
                    <mxGeometry x="1000" y="160" width="40" height="70" as="geometry"/>
                </mxCell>
                <mxCell id="8wwHdv7dpoQ4_Vg7DCHK-6" value="{ &quot;student_id&quot;:123, &quot;email&quot;: &quot;pepe.perez@alumnos.uach.cl&quot;, &quot;password&quot;: &quot;contraseÃ±a&quot; }" style="text;html=1;strokeColor=none;fillColor=none;align=center;verticalAlign=middle;whiteSpace=wrap;rounded=0;" parent="8wwHdv7dpoQ4_Vg7DCHK-1" vertex="1">
                    <mxGeometry x="230" y="80" width="480" height="20" as="geometry"/>
                </mxCell>
                <mxCell id="8wwHdv7dpoQ4_Vg7DCHK-8" style="edgeStyle=orthogonalEdgeStyle;rounded=0;orthogonalLoop=1;jettySize=auto;html=1;exitX=0;exitY=0.5;exitDx=0;exitDy=0;entryX=1;entryY=0.5;entryDx=0;entryDy=0;" parent="8wwHdv7dpoQ4_Vg7DCHK-1" source="8wwHdv7dpoQ4_Vg7DCHK-10" target="8wwHdv7dpoQ4_Vg7DCHK-14" edge="1">
                    <mxGeometry relative="1" as="geometry">
                        <mxPoint x="190" y="123" as="targetPoint"/>
                    </mxGeometry>
                </mxCell>
                <mxCell id="8wwHdv7dpoQ4_Vg7DCHK-9" value="1" style="edgeLabel;html=1;align=center;verticalAlign=middle;resizable=0;points=[];" parent="8wwHdv7dpoQ4_Vg7DCHK-8" vertex="1" connectable="0">
                    <mxGeometry x="-0.6885" y="2" relative="1" as="geometry">
                        <mxPoint as="offset"/>
                    </mxGeometry>
                </mxCell>
                <mxCell id="8wwHdv7dpoQ4_Vg7DCHK-10" value="Frontend" style="rounded=0;whiteSpace=wrap;html=1;" parent="8wwHdv7dpoQ4_Vg7DCHK-1" vertex="1">
                    <mxGeometry x="747" y="120" width="80" height="30" as="geometry"/>
                </mxCell>
                <mxCell id="8wwHdv7dpoQ4_Vg7DCHK-12" style="edgeStyle=orthogonalEdgeStyle;rounded=0;orthogonalLoop=1;jettySize=auto;html=1;exitX=0.5;exitY=1;exitDx=0;exitDy=0;entryX=0.5;entryY=1;entryDx=0;entryDy=0;" parent="8wwHdv7dpoQ4_Vg7DCHK-1" source="8wwHdv7dpoQ4_Vg7DCHK-7" target="8wwHdv7dpoQ4_Vg7DCHK-10" edge="1">
                    <mxGeometry relative="1" as="geometry"/>
                </mxCell>
                <mxCell id="8wwHdv7dpoQ4_Vg7DCHK-13" value="2&lt;br&gt;" style="edgeLabel;html=1;align=center;verticalAlign=middle;resizable=0;points=[];" parent="8wwHdv7dpoQ4_Vg7DCHK-12" vertex="1" connectable="0">
                    <mxGeometry x="0.846" y="2" relative="1" as="geometry">
                        <mxPoint x="1" y="1" as="offset"/>
                    </mxGeometry>
                </mxCell>
                <mxCell id="8wwHdv7dpoQ4_Vg7DCHK-14" value="/api/register" style="rounded=0;whiteSpace=wrap;html=1;" parent="8wwHdv7dpoQ4_Vg7DCHK-1" vertex="1">
                    <mxGeometry x="46.88" y="90" width="86.25" height="30" as="geometry"/>
                </mxCell>
                <mxCell id="8wwHdv7dpoQ4_Vg7DCHK-15" value="Backend" style="text;html=1;strokeColor=none;fillColor=none;align=center;verticalAlign=middle;whiteSpace=wrap;rounded=0;" parent="8wwHdv7dpoQ4_Vg7DCHK-1" vertex="1">
                    <mxGeometry x="40" y="60" width="40" height="20" as="geometry"/>
                </mxCell>
                <mxCell id="8wwHdv7dpoQ4_Vg7DCHK-16" value=".JSON" style="text;html=1;strokeColor=none;fillColor=none;align=center;verticalAlign=middle;whiteSpace=wrap;rounded=0;" parent="8wwHdv7dpoQ4_Vg7DCHK-1" vertex="1">
                    <mxGeometry x="430" y="230" width="40" height="20" as="geometry"/>
                </mxCell>
                <mxCell id="8wwHdv7dpoQ4_Vg7DCHK-7" value="{&quot;error&quot;: &quot;Hay campos Incompletos&lt;span&gt;&quot;&amp;nbsp; } ||&lt;/span&gt;&lt;br&gt;{&quot;mensaje&quot;: &quot;cuenta creada correctamente&quot;}" style="text;html=1;strokeColor=none;fillColor=none;align=center;verticalAlign=middle;whiteSpace=wrap;rounded=0;" parent="8wwHdv7dpoQ4_Vg7DCHK-1" vertex="1">
                    <mxGeometry x="110" y="170" width="630" height="20" as="geometry"/>
                </mxCell>
                <mxCell id="EwuJAbLZrEGLxm2s5szK-1" style="edgeStyle=orthogonalEdgeStyle;rounded=0;orthogonalLoop=1;jettySize=auto;html=1;exitX=0.5;exitY=1;exitDx=0;exitDy=0;entryX=0.5;entryY=1;entryDx=0;entryDy=0;" parent="8wwHdv7dpoQ4_Vg7DCHK-1" source="8wwHdv7dpoQ4_Vg7DCHK-14" target="8wwHdv7dpoQ4_Vg7DCHK-7" edge="1">
                    <mxGeometry relative="1" as="geometry">
                        <mxPoint x="90.00500000000011" y="120.00000000000006" as="sourcePoint"/>
                        <mxPoint x="786.9999999999998" y="150" as="targetPoint"/>
                    </mxGeometry>
                </mxCell>
                <mxCell id="EwuJAbLZrEGLxm2s5szK-2" value="2&lt;br&gt;" style="edgeLabel;html=1;align=center;verticalAlign=middle;resizable=0;points=[];" parent="EwuJAbLZrEGLxm2s5szK-1" vertex="1" connectable="0">
                    <mxGeometry x="0.846" y="2" relative="1" as="geometry">
                        <mxPoint x="1" y="1" as="offset"/>
                    </mxGeometry>
                </mxCell>
            </root>
        </mxGraphModel>
    </diagram>
    <diagram id="z-6eA_G5XWTZMIFhccbf" name="login">
        <mxGraphModel dx="777" dy="301" grid="1" gridSize="10" guides="1" tooltips="1" connect="1" arrows="1" fold="1" page="1" pageScale="1" pageWidth="827" pageHeight="1169" math="0" shadow="0">
            <root>
                <mxCell id="aGnoAmkBOYlj7Te8nrMr-0"/>
                <mxCell id="aGnoAmkBOYlj7Te8nrMr-1" parent="aGnoAmkBOYlj7Te8nrMr-0"/>
                <mxCell id="x41woivWCbY1CYnq5cND-0" value="" style="rounded=0;whiteSpace=wrap;html=1;" parent="aGnoAmkBOYlj7Te8nrMr-1" vertex="1">
                    <mxGeometry x="30" y="50" width="170" height="170" as="geometry"/>
                </mxCell>
                <mxCell id="x41woivWCbY1CYnq5cND-1" style="edgeStyle=orthogonalEdgeStyle;rounded=0;orthogonalLoop=1;jettySize=auto;html=1;exitX=0;exitY=0.3333333333333333;exitDx=0;exitDy=0;exitPerimeter=0;entryX=1;entryY=0.5;entryDx=0;entryDy=0;" parent="aGnoAmkBOYlj7Te8nrMr-1" source="x41woivWCbY1CYnq5cND-3" target="x41woivWCbY1CYnq5cND-7" edge="1">
                    <mxGeometry relative="1" as="geometry"/>
                </mxCell>
                <mxCell id="x41woivWCbY1CYnq5cND-2" value="/hola" style="edgeLabel;html=1;align=center;verticalAlign=middle;resizable=0;points=[];" parent="x41woivWCbY1CYnq5cND-1" vertex="1" connectable="0">
                    <mxGeometry x="0.1843" y="3" relative="1" as="geometry">
                        <mxPoint as="offset"/>
                    </mxGeometry>
                </mxCell>
                <mxCell id="x41woivWCbY1CYnq5cND-3" value="Estudiante" style="shape=umlActor;verticalLabelPosition=bottom;verticalAlign=top;html=1;outlineConnect=0;" parent="aGnoAmkBOYlj7Te8nrMr-1" vertex="1">
                    <mxGeometry x="760" y="230" width="30" height="60" as="geometry"/>
                </mxCell>
                <mxCell id="x41woivWCbY1CYnq5cND-4" style="edgeStyle=orthogonalEdgeStyle;rounded=0;orthogonalLoop=1;jettySize=auto;html=1;exitX=1;exitY=0.75;exitDx=0;exitDy=0;entryX=0.5;entryY=1;entryDx=0;entryDy=0;" parent="aGnoAmkBOYlj7Te8nrMr-1" source="x41woivWCbY1CYnq5cND-5" target="x41woivWCbY1CYnq5cND-7" edge="1">
                    <mxGeometry relative="1" as="geometry"/>
                </mxCell>
                <mxCell id="x41woivWCbY1CYnq5cND-5" value="/api/Validacion" style="rounded=0;whiteSpace=wrap;html=1;" parent="aGnoAmkBOYlj7Te8nrMr-1" vertex="1">
                    <mxGeometry x="55" y="100" width="120" height="60" as="geometry"/>
                </mxCell>
                <mxCell id="x41woivWCbY1CYnq5cND-6" style="edgeStyle=orthogonalEdgeStyle;rounded=0;orthogonalLoop=1;jettySize=auto;html=1;exitX=0;exitY=0.25;exitDx=0;exitDy=0;entryX=1;entryY=0.25;entryDx=0;entryDy=0;" parent="aGnoAmkBOYlj7Te8nrMr-1" source="x41woivWCbY1CYnq5cND-7" target="x41woivWCbY1CYnq5cND-5" edge="1">
                    <mxGeometry relative="1" as="geometry"/>
                </mxCell>
                <mxCell id="x41woivWCbY1CYnq5cND-7" value="frontend" style="whiteSpace=wrap;html=1;" parent="aGnoAmkBOYlj7Te8nrMr-1" vertex="1">
                    <mxGeometry x="500" y="105" width="120" height="60" as="geometry"/>
                </mxCell>
                <mxCell id="x41woivWCbY1CYnq5cND-8" value="{ &quot;id&quot;: &quot;pepe&quot;, &quot;pass&quot;:&quot;123kdsfsdf&quot; }" style="text;html=1;strokeColor=none;fillColor=none;align=center;verticalAlign=middle;whiteSpace=wrap;rounded=0;" parent="aGnoAmkBOYlj7Te8nrMr-1" vertex="1">
                    <mxGeometry x="360" y="80" width="136" height="40" as="geometry"/>
                </mxCell>
                <mxCell id="x41woivWCbY1CYnq5cND-9" value="{ &quot;error&quot;:null,&quot;student_id&quot;:123 }&lt;br&gt;{ &quot;error&quot;:&quot;contraseÃ±a incorrecta&quot;,&quot;student_id&quot;:null }" style="text;html=1;strokeColor=none;fillColor=none;align=center;verticalAlign=middle;whiteSpace=wrap;rounded=0;" parent="aGnoAmkBOYlj7Te8nrMr-1" vertex="1">
                    <mxGeometry x="310" y="190" width="270" height="30" as="geometry"/>
                </mxCell>
                <mxCell id="x41woivWCbY1CYnq5cND-10" value="Backend" style="text;html=1;strokeColor=none;fillColor=none;align=center;verticalAlign=middle;whiteSpace=wrap;rounded=0;" parent="aGnoAmkBOYlj7Te8nrMr-1" vertex="1">
                    <mxGeometry x="50" y="60" width="40" height="20" as="geometry"/>
                </mxCell>
            </root>
        </mxGraphModel>
    </diagram>
</mxfile>